<svg xmlns="http://www.w3.org/2000/svg" xmlns:xlink="http://www.w3.org/1999/xlink" width="512" zoomAndPan="magnify" viewBox="0 0 384 383.999986" height="512" preserveAspectRatio="xMidYMid meet" version="1.0"><defs><clipPath id="4b94ff9b73"><path d="M 192 0 C 195.140625 0 198.28125 0.078125 201.421875 0.230469 C 204.558594 0.386719 207.691406 0.617188 210.820312 0.925781 C 213.945312 1.234375 217.0625 1.617188 220.171875 2.078125 C 223.28125 2.539062 226.375 3.078125 229.457031 3.6875 C 232.539062 4.300781 235.605469 4.992188 238.652344 5.753906 C 241.699219 6.515625 244.726562 7.355469 247.734375 8.265625 C 250.742188 9.179688 253.722656 10.164062 256.683594 11.222656 C 259.640625 12.28125 262.570312 13.414062 265.476562 14.613281 C 268.378906 15.816406 271.25 17.089844 274.089844 18.433594 C 276.929688 19.777344 279.738281 21.191406 282.507812 22.671875 C 285.28125 24.152344 288.011719 25.699219 290.707031 27.316406 C 293.402344 28.929688 296.058594 30.613281 298.667969 32.359375 C 301.28125 34.105469 303.851562 35.914062 306.375 37.785156 C 308.898438 39.65625 311.375 41.589844 313.804688 43.582031 C 316.234375 45.574219 318.609375 47.628906 320.9375 49.738281 C 323.265625 51.847656 325.542969 54.011719 327.765625 56.234375 C 329.988281 58.457031 332.152344 60.734375 334.261719 63.0625 C 336.371094 65.390625 338.425781 67.765625 340.417969 70.195312 C 342.410156 72.625 344.34375 75.101562 346.214844 77.625 C 348.085938 80.148438 349.894531 82.71875 351.640625 85.332031 C 353.386719 87.941406 355.070312 90.597656 356.683594 93.292969 C 358.300781 95.988281 359.847656 98.71875 361.328125 101.492188 C 362.808594 104.261719 364.222656 107.070312 365.566406 109.910156 C 366.910156 112.75 368.183594 115.621094 369.386719 118.523438 C 370.585938 121.429688 371.71875 124.359375 372.777344 127.316406 C 373.835938 130.277344 374.820312 133.257812 375.734375 136.265625 C 376.644531 139.273438 377.484375 142.300781 378.246094 145.347656 C 379.007812 148.394531 379.699219 151.460938 380.3125 154.542969 C 380.921875 157.625 381.460938 160.71875 381.921875 163.828125 C 382.382812 166.9375 382.765625 170.054688 383.074219 173.179688 C 383.382812 176.308594 383.613281 179.441406 383.769531 182.578125 C 383.921875 185.71875 384 188.859375 384 192 C 384 195.140625 383.921875 198.28125 383.769531 201.421875 C 383.613281 204.558594 383.382812 207.691406 383.074219 210.820312 C 382.765625 213.945312 382.382812 217.0625 381.921875 220.171875 C 381.460938 223.28125 380.921875 226.375 380.3125 229.457031 C 379.699219 232.539062 379.007812 235.605469 378.246094 238.652344 C 377.484375 241.699219 376.644531 244.726562 375.734375 247.734375 C 374.820312 250.742188 373.835938 253.722656 372.777344 256.683594 C 371.71875 259.640625 370.585938 262.570312 369.386719 265.476562 C 368.183594 268.378906 366.910156 271.25 365.566406 274.089844 C 364.222656 276.929688 362.808594 279.738281 361.328125 282.507812 C 359.847656 285.28125 358.300781 288.011719 356.683594 290.707031 C 355.070312 293.402344 353.386719 296.058594 351.640625 298.667969 C 349.894531 301.28125 348.085938 303.851562 346.214844 306.375 C 344.34375 308.898438 342.410156 311.375 340.417969 313.804688 C 338.425781 316.234375 336.371094 318.609375 334.261719 320.9375 C 332.152344 323.265625 329.988281 325.542969 327.765625 327.765625 C 325.542969 329.988281 323.265625 332.152344 320.9375 334.261719 C 318.609375 336.371094 316.234375 338.425781 313.804688 340.417969 C 311.375 342.410156 308.898438 344.34375 306.375 346.214844 C 303.851562 348.085938 301.28125 349.894531 298.667969 351.640625 C 296.058594 353.386719 293.402344 355.070312 290.707031 356.683594 C 288.011719 358.300781 285.28125 359.847656 282.507812 361.328125 C 279.738281 362.808594 276.929688 364.222656 274.089844 365.566406 C 271.25 366.910156 268.378906 368.183594 265.476562 369.386719 C 262.570312 370.585938 259.640625 371.71875 256.683594 372.777344 C 253.722656 373.835938 250.742188 374.820312 247.734375 375.734375 C 244.726562 376.644531 241.699219 377.484375 238.652344 378.246094 C 235.605469 379.007812 232.539062 379.699219 229.457031 380.3125 C 226.375 380.921875 223.28125 381.460938 220.171875 381.921875 C 217.0625 382.382812 213.945312 382.765625 210.820312 383.074219 C 207.691406 383.382812 204.558594 383.613281 201.421875 383.769531 C 198.28125 383.921875 195.140625 384 192 384 C 188.859375 384 185.71875 383.921875 182.578125 383.769531 C 179.441406 383.613281 176.308594 383.382812 173.179688 383.074219 C 170.054688 382.765625 166.9375 382.382812 163.828125 381.921875 C 160.71875 381.460938 157.625 380.921875 154.542969 380.3125 C 151.460938 379.699219 148.394531 379.007812 145.347656 378.246094 C 142.300781 377.484375 139.273438 376.644531 136.265625 375.734375 C 133.257812 374.820312 130.277344 373.835938 127.316406 372.777344 C 124.359375 371.71875 121.429688 370.585938 118.523438 369.386719 C 115.621094 368.183594 112.75 366.910156 109.910156 365.566406 C 107.070312 364.222656 104.261719 362.808594 101.492188 361.328125 C 98.71875 359.847656 95.988281 358.300781 93.292969 356.683594 C 90.597656 355.070312 87.941406 353.386719 85.332031 351.640625 C 82.71875 349.894531 80.148438 348.085938 77.625 346.214844 C 75.101562 344.34375 72.625 342.410156 70.195312 340.417969 C 67.765625 338.425781 65.390625 336.371094 63.0625 334.261719 C 60.734375 332.152344 58.457031 329.988281 56.234375 327.765625 C 54.011719 325.542969 51.847656 323.265625 49.738281 320.9375 C 47.628906 318.609375 45.574219 316.234375 43.582031 313.804688 C 41.589844 311.375 39.65625 308.898438 37.785156 306.375 C 35.914062 303.851562 34.105469 301.28125 32.359375 298.667969 C 30.613281 296.058594 28.929688 293.402344 27.316406 290.707031 C 25.699219 288.011719 24.152344 285.28125 22.671875 282.507812 C 21.191406 279.738281 19.777344 276.929688 18.433594 274.089844 C 17.089844 271.25 15.816406 268.378906 14.613281 265.476562 C 13.414062 262.570312 12.28125 259.640625 11.222656 256.683594 C 10.164062 253.722656 9.179688 250.742188 8.265625 247.734375 C 7.355469 244.726562 6.515625 241.699219 5.753906 238.652344 C 4.992188 235.605469 4.300781 232.539062 3.6875 229.457031 C 3.078125 226.375 2.539062 223.28125 2.078125 220.171875 C 1.617188 217.0625 1.234375 213.945312 0.925781 210.820312 C 0.617188 207.691406 0.386719 204.558594 0.230469 201.421875 C 0.078125 198.28125 0 195.140625 0 192 C 0 188.859375 0.078125 185.71875 0.230469 182.578125 C 0.386719 179.441406 0.617188 176.308594 0.925781 173.179688 C 1.234375 170.054688 1.617188 166.9375 2.078125 163.828125 C 2.539062 160.71875 3.078125 157.625 3.6875 154.542969 C 4.300781 151.460938 4.992188 148.394531 5.753906 145.347656 C 6.515625 142.300781 7.355469 139.273438 8.265625 136.265625 C 9.179688 133.257812 10.164062 130.277344 11.222656 127.316406 C 12.28125 124.359375 13.414062 121.429688 14.613281 118.523438 C 15.816406 115.621094 17.089844 112.75 18.433594 109.910156 C 19.777344 107.070312 21.191406 104.261719 22.671875 101.492188 C 24.152344 98.71875 25.699219 95.988281 27.316406 93.292969 C 28.929688 90.597656 30.613281 87.941406 32.359375 85.332031 C 34.105469 82.71875 35.914062 80.148438 37.785156 77.625 C 39.65625 75.101562 41.589844 72.625 43.582031 70.195312 C 45.574219 67.765625 47.628906 65.390625 49.738281 63.0625 C 51.847656 60.734375 54.011719 58.457031 56.234375 56.234375 C 58.457031 54.011719 60.734375 51.847656 63.0625 49.738281 C 65.390625 47.628906 67.765625 45.574219 70.195312 43.582031 C 72.625 41.589844 75.101562 39.65625 77.625 37.785156 C 80.148438 35.914062 82.71875 34.105469 85.332031 32.359375 C 87.941406 30.613281 90.597656 28.929688 93.292969 27.316406 C 95.988281 25.699219 98.71875 24.152344 101.492188 22.671875 C 104.261719 21.191406 107.070312 19.777344 109.910156 18.433594 C 112.75 17.089844 115.621094 15.816406 118.523438 14.613281 C 121.429688 13.414062 124.359375 12.28125 127.316406 11.222656 C 130.277344 10.164062 133.257812 9.179688 136.265625 8.265625 C 139.273438 7.355469 142.300781 6.515625 145.347656 5.753906 C 148.394531 4.992188 151.460938 4.300781 154.542969 3.6875 C 157.625 3.078125 160.71875 2.539062 163.828125 2.078125 C 166.9375 1.617188 170.054688 1.234375 173.179688 0.925781 C 176.308594 0.617188 179.441406 0.386719 182.578125 0.230469 C 185.71875 0.078125 188.859375 0 192 0 Z M 192 0 " clip-rule="nonzero"/></clipPath><linearGradient x1="0.0000000172253" gradientTransform="matrix(0.000000000000023513, -383.999986, 383.999986, 0.000000000000023513, 0.0000072, 383.999983)" y1="0.0000000170565" x2="1.004902" gradientUnits="userSpaceOnUse" y2="0.995049" id="744dc56a07"><stop stop-opacity="1" stop-color="rgb(30.999756%, 81.599426%, 77.598572%)" offset="0"/><stop stop-opacity="1" stop-color="rgb(30.879211%, 81.452942%, 77.668762%)" offset="0.0078125"/><stop stop-opacity="1" stop-color="rgb(30.639648%, 81.161499%, 77.809143%)" offset="0.015625"/><stop stop-opacity="1" stop-color="rgb(30.400085%, 80.871582%, 77.947998%)" offset="0.0234375"/><stop stop-opacity="1" stop-color="rgb(30.160522%, 80.580139%, 78.088379%)" offset="0.03125"/><stop stop-opacity="1" stop-color="rgb(29.920959%, 80.288696%, 78.227234%)" offset="0.0390625"/><stop stop-opacity="1" stop-color="rgb(29.682922%, 79.997253%, 78.367615%)" offset="0.046875"/><stop stop-opacity="1" stop-color="rgb(29.443359%, 79.707336%, 78.50647%)" offset="0.0546875"/><stop stop-opacity="1" stop-color="rgb(29.203796%, 79.415894%, 78.646851%)" offset="0.0625"/><stop stop-opacity="1" stop-color="rgb(28.964233%, 79.124451%, 78.787231%)" offset="0.0703125"/><stop stop-opacity="1" stop-color="rgb(28.72467%, 78.833008%, 78.926086%)" offset="0.078125"/><stop stop-opacity="1" stop-color="rgb(28.485107%, 78.543091%, 79.066467%)" offset="0.0859375"/><stop stop-opacity="1" stop-color="rgb(28.245544%, 78.251648%, 79.205322%)" offset="0.09375"/><stop stop-opacity="1" stop-color="rgb(28.007507%, 77.960205%, 79.345703%)" offset="0.101563"/><stop stop-opacity="1" stop-color="rgb(27.767944%, 77.668762%, 79.486084%)" offset="0.109375"/><stop stop-opacity="1" stop-color="rgb(27.528381%, 77.378845%, 79.624939%)" offset="0.117188"/><stop stop-opacity="1" stop-color="rgb(27.288818%, 77.087402%, 79.76532%)" offset="0.125"/><stop stop-opacity="1" stop-color="rgb(27.049255%, 76.795959%, 79.904175%)" offset="0.132812"/><stop stop-opacity="1" stop-color="rgb(26.809692%, 76.504517%, 80.044556%)" offset="0.140625"/><stop stop-opacity="1" stop-color="rgb(26.571655%, 76.2146%, 80.183411%)" offset="0.148438"/><stop stop-opacity="1" stop-color="rgb(26.332092%, 75.923157%, 80.323792%)" offset="0.15625"/><stop stop-opacity="1" stop-color="rgb(26.092529%, 75.631714%, 80.464172%)" offset="0.164063"/><stop stop-opacity="1" stop-color="rgb(25.852966%, 75.340271%, 80.603027%)" offset="0.171875"/><stop stop-opacity="1" stop-color="rgb(25.613403%, 75.050354%, 80.743408%)" offset="0.179688"/><stop stop-opacity="1" stop-color="rgb(25.37384%, 74.758911%, 80.882263%)" offset="0.1875"/><stop stop-opacity="1" stop-color="rgb(25.134277%, 74.467468%, 81.022644%)" offset="0.195312"/><stop stop-opacity="1" stop-color="rgb(24.89624%, 74.176025%, 81.161499%)" offset="0.203125"/><stop stop-opacity="1" stop-color="rgb(24.656677%, 73.886108%, 81.30188%)" offset="0.210938"/><stop stop-opacity="1" stop-color="rgb(24.417114%, 73.594666%, 81.442261%)" offset="0.21875"/><stop stop-opacity="1" stop-color="rgb(24.177551%, 73.303223%, 81.581116%)" offset="0.226563"/><stop stop-opacity="1" stop-color="rgb(23.937988%, 73.01178%, 81.721497%)" offset="0.234375"/><stop stop-opacity="1" stop-color="rgb(23.698425%, 72.721863%, 81.860352%)" offset="0.242188"/><stop stop-opacity="1" stop-color="rgb(23.460388%, 72.43042%, 82.000732%)" offset="0.25"/><stop stop-opacity="1" stop-color="rgb(23.220825%, 72.138977%, 82.141113%)" offset="0.257812"/><stop stop-opacity="1" stop-color="rgb(22.981262%, 71.847534%, 82.279968%)" offset="0.265625"/><stop stop-opacity="1" stop-color="rgb(22.741699%, 71.557617%, 82.420349%)" offset="0.273438"/><stop stop-opacity="1" stop-color="rgb(22.502136%, 71.266174%, 82.559204%)" offset="0.28125"/><stop stop-opacity="1" stop-color="rgb(22.262573%, 70.974731%, 82.699585%)" offset="0.289063"/><stop stop-opacity="1" stop-color="rgb(22.02301%, 70.684814%, 82.83844%)" offset="0.296875"/><stop stop-opacity="1" stop-color="rgb(21.784973%, 70.393372%, 82.978821%)" offset="0.304688"/><stop stop-opacity="1" stop-color="rgb(21.54541%, 70.101929%, 83.119202%)" offset="0.3125"/><stop stop-opacity="1" stop-color="rgb(21.305847%, 69.810486%, 83.258057%)" offset="0.320313"/><stop stop-opacity="1" stop-color="rgb(21.066284%, 69.520569%, 83.398438%)" offset="0.328125"/><stop stop-opacity="1" stop-color="rgb(20.826721%, 69.229126%, 83.537292%)" offset="0.335938"/><stop stop-opacity="1" stop-color="rgb(20.587158%, 68.937683%, 83.677673%)" offset="0.34375"/><stop stop-opacity="1" stop-color="rgb(20.349121%, 68.64624%, 83.816528%)" offset="0.351563"/><stop stop-opacity="1" stop-color="rgb(20.109558%, 68.356323%, 83.956909%)" offset="0.359375"/><stop stop-opacity="1" stop-color="rgb(19.869995%, 68.06488%, 84.09729%)" offset="0.367188"/><stop stop-opacity="1" stop-color="rgb(19.630432%, 67.773438%, 84.236145%)" offset="0.375"/><stop stop-opacity="1" stop-color="rgb(19.390869%, 67.481995%, 84.376526%)" offset="0.382813"/><stop stop-opacity="1" stop-color="rgb(19.151306%, 67.192078%, 84.515381%)" offset="0.390625"/><stop stop-opacity="1" stop-color="rgb(18.911743%, 66.900635%, 84.655762%)" offset="0.398438"/><stop stop-opacity="1" stop-color="rgb(18.673706%, 66.609192%, 84.796143%)" offset="0.40625"/><stop stop-opacity="1" stop-color="rgb(18.434143%, 66.317749%, 84.934998%)" offset="0.414063"/><stop stop-opacity="1" stop-color="rgb(18.19458%, 66.027832%, 85.075378%)" offset="0.421875"/><stop stop-opacity="1" stop-color="rgb(17.955017%, 65.736389%, 85.214233%)" offset="0.429688"/><stop stop-opacity="1" stop-color="rgb(17.715454%, 65.444946%, 85.354614%)" offset="0.4375"/><stop stop-opacity="1" stop-color="rgb(17.475891%, 65.153503%, 85.493469%)" offset="0.445313"/><stop stop-opacity="1" stop-color="rgb(17.237854%, 64.863586%, 85.63385%)" offset="0.453125"/><stop stop-opacity="1" stop-color="rgb(16.998291%, 64.572144%, 85.774231%)" offset="0.460938"/><stop stop-opacity="1" stop-color="rgb(16.758728%, 64.280701%, 85.913086%)" offset="0.46875"/><stop stop-opacity="1" stop-color="rgb(16.519165%, 63.989258%, 86.053467%)" offset="0.476563"/><stop stop-opacity="1" stop-color="rgb(16.279602%, 63.699341%, 86.192322%)" offset="0.484375"/><stop stop-opacity="1" stop-color="rgb(16.040039%, 63.407898%, 86.332703%)" offset="0.492188"/><stop stop-opacity="1" stop-color="rgb(15.800476%, 63.116455%, 86.471558%)" offset="0.497537"/><stop stop-opacity="1" stop-color="rgb(15.681458%, 62.971497%, 86.541748%)" offset="0.5"/><stop stop-opacity="1" stop-color="rgb(15.562439%, 62.825012%, 86.611938%)" offset="0.502463"/><stop stop-opacity="1" stop-color="rgb(15.44342%, 62.680054%, 86.682129%)" offset="0.507812"/><stop stop-opacity="1" stop-color="rgb(15.322876%, 62.535095%, 86.752319%)" offset="0.515625"/><stop stop-opacity="1" stop-color="rgb(15.083313%, 62.243652%, 86.891174%)" offset="0.523438"/><stop stop-opacity="1" stop-color="rgb(14.84375%, 61.952209%, 87.031555%)" offset="0.53125"/><stop stop-opacity="1" stop-color="rgb(14.604187%, 61.660767%, 87.17041%)" offset="0.539062"/><stop stop-opacity="1" stop-color="rgb(14.364624%, 61.37085%, 87.310791%)" offset="0.546875"/><stop stop-opacity="1" stop-color="rgb(14.126587%, 61.079407%, 87.451172%)" offset="0.554687"/><stop stop-opacity="1" stop-color="rgb(13.887024%, 60.787964%, 87.590027%)" offset="0.5625"/><stop stop-opacity="1" stop-color="rgb(13.647461%, 60.496521%, 87.730408%)" offset="0.570312"/><stop stop-opacity="1" stop-color="rgb(13.407898%, 60.206604%, 87.869263%)" offset="0.578125"/><stop stop-opacity="1" stop-color="rgb(13.168335%, 59.915161%, 88.009644%)" offset="0.585937"/><stop stop-opacity="1" stop-color="rgb(12.928772%, 59.623718%, 88.148499%)" offset="0.59375"/><stop stop-opacity="1" stop-color="rgb(12.689209%, 59.332275%, 88.288879%)" offset="0.601562"/><stop stop-opacity="1" stop-color="rgb(12.451172%, 59.042358%, 88.42926%)" offset="0.609375"/><stop stop-opacity="1" stop-color="rgb(12.211609%, 58.750916%, 88.568115%)" offset="0.617187"/><stop stop-opacity="1" stop-color="rgb(11.972046%, 58.459473%, 88.708496%)" offset="0.625"/><stop stop-opacity="1" stop-color="rgb(11.732483%, 58.16803%, 88.847351%)" offset="0.632813"/><stop stop-opacity="1" stop-color="rgb(11.49292%, 57.878113%, 88.987732%)" offset="0.640625"/><stop stop-opacity="1" stop-color="rgb(11.253357%, 57.58667%, 89.126587%)" offset="0.648438"/><stop stop-opacity="1" stop-color="rgb(11.013794%, 57.295227%, 89.266968%)" offset="0.65625"/><stop stop-opacity="1" stop-color="rgb(10.775757%, 57.003784%, 89.407349%)" offset="0.664063"/><stop stop-opacity="1" stop-color="rgb(10.536194%, 56.713867%, 89.546204%)" offset="0.671875"/><stop stop-opacity="1" stop-color="rgb(10.296631%, 56.422424%, 89.686584%)" offset="0.679688"/><stop stop-opacity="1" stop-color="rgb(10.057068%, 56.130981%, 89.825439%)" offset="0.6875"/><stop stop-opacity="1" stop-color="rgb(9.817505%, 55.839539%, 89.96582%)" offset="0.695313"/><stop stop-opacity="1" stop-color="rgb(9.577942%, 55.549622%, 90.106201%)" offset="0.703125"/><stop stop-opacity="1" stop-color="rgb(9.339905%, 55.258179%, 90.245056%)" offset="0.710938"/><stop stop-opacity="1" stop-color="rgb(9.100342%, 54.966736%, 90.385437%)" offset="0.71875"/><stop stop-opacity="1" stop-color="rgb(8.860779%, 54.675293%, 90.524292%)" offset="0.726562"/><stop stop-opacity="1" stop-color="rgb(8.621216%, 54.385376%, 90.664673%)" offset="0.734375"/><stop stop-opacity="1" stop-color="rgb(8.381653%, 54.093933%, 90.803528%)" offset="0.742188"/><stop stop-opacity="1" stop-color="rgb(8.14209%, 53.80249%, 90.943909%)" offset="0.75"/><stop stop-opacity="1" stop-color="rgb(7.902527%, 53.511047%, 91.08429%)" offset="0.757812"/><stop stop-opacity="1" stop-color="rgb(7.66449%, 53.22113%, 91.223145%)" offset="0.765625"/><stop stop-opacity="1" stop-color="rgb(7.424927%, 52.929688%, 91.363525%)" offset="0.773438"/><stop stop-opacity="1" stop-color="rgb(7.185364%, 52.638245%, 91.50238%)" offset="0.78125"/><stop stop-opacity="1" stop-color="rgb(6.945801%, 52.346802%, 91.642761%)" offset="0.789062"/><stop stop-opacity="1" stop-color="rgb(6.706238%, 52.056885%, 91.781616%)" offset="0.796875"/><stop stop-opacity="1" stop-color="rgb(6.466675%, 51.765442%, 91.921997%)" offset="0.804687"/><stop stop-opacity="1" stop-color="rgb(6.228638%, 51.473999%, 92.062378%)" offset="0.8125"/><stop stop-opacity="1" stop-color="rgb(5.989075%, 51.182556%, 92.201233%)" offset="0.820312"/><stop stop-opacity="1" stop-color="rgb(5.749512%, 50.892639%, 92.341614%)" offset="0.828125"/><stop stop-opacity="1" stop-color="rgb(5.509949%, 50.601196%, 92.480469%)" offset="0.835937"/><stop stop-opacity="1" stop-color="rgb(5.270386%, 50.309753%, 92.62085%)" offset="0.84375"/><stop stop-opacity="1" stop-color="rgb(5.030823%, 50.019836%, 92.76123%)" offset="0.851562"/><stop stop-opacity="1" stop-color="rgb(4.79126%, 49.728394%, 92.900085%)" offset="0.859375"/><stop stop-opacity="1" stop-color="rgb(4.553223%, 49.436951%, 93.040466%)" offset="0.867187"/><stop stop-opacity="1" stop-color="rgb(4.31366%, 49.145508%, 93.179321%)" offset="0.875"/><stop stop-opacity="1" stop-color="rgb(4.074097%, 48.855591%, 93.319702%)" offset="0.882813"/><stop stop-opacity="1" stop-color="rgb(3.834534%, 48.564148%, 93.458557%)" offset="0.890625"/><stop stop-opacity="1" stop-color="rgb(3.594971%, 48.272705%, 93.598938%)" offset="0.898438"/><stop stop-opacity="1" stop-color="rgb(3.355408%, 47.981262%, 93.739319%)" offset="0.90625"/><stop stop-opacity="1" stop-color="rgb(3.117371%, 47.691345%, 93.878174%)" offset="0.914063"/><stop stop-opacity="1" stop-color="rgb(2.877808%, 47.399902%, 94.018555%)" offset="0.921875"/><stop stop-opacity="1" stop-color="rgb(2.638245%, 47.108459%, 94.15741%)" offset="0.929688"/><stop stop-opacity="1" stop-color="rgb(2.398682%, 46.817017%, 94.297791%)" offset="0.9375"/><stop stop-opacity="1" stop-color="rgb(2.159119%, 46.5271%, 94.436646%)" offset="0.945313"/><stop stop-opacity="1" stop-color="rgb(1.919556%, 46.235657%, 94.577026%)" offset="0.953125"/><stop stop-opacity="1" stop-color="rgb(1.679993%, 45.944214%, 94.717407%)" offset="0.960938"/><stop stop-opacity="1" stop-color="rgb(1.441956%, 45.652771%, 94.856262%)" offset="0.96875"/><stop stop-opacity="1" stop-color="rgb(1.202393%, 45.362854%, 94.996643%)" offset="0.976562"/><stop stop-opacity="1" stop-color="rgb(0.96283%, 45.071411%, 95.135498%)" offset="0.984375"/><stop stop-opacity="1" stop-color="rgb(0.723267%, 44.779968%, 95.275879%)" offset="0.992188"/><stop stop-opacity="1" stop-color="rgb(0.483704%, 44.488525%, 95.414734%)" offset="1"/></linearGradient><clipPath id="51b6116c89"><path d="M 24 24 L 375 24 L 375 359 L 24 359 Z M 24 24 " clip-rule="nonzero"/></clipPath><clipPath id="dab28886eb"><path d="M 430.804688 192.292969 L 192.15625 430.941406 L -47.023438 191.765625 L 191.625 -46.882812 Z M 430.804688 192.292969 " clip-rule="nonzero"/></clipPath><clipPath id="91b4220b51"><path d="M 430.804688 192.292969 L 192.15625 430.941406 L -47.023438 191.765625 L 191.625 -46.882812 Z M 430.804688 192.292969 " clip-rule="nonzero"/></clipPath><clipPath id="8aa6477dab"><path d="M 58 184.855469 L 82 184.855469 L 82 259 L 58 259 Z M 58 184.855469 " clip-rule="nonzero"/></clipPath><clipPath id="4691efb9c3"><path d="M 93 184.855469 L 166 184.855469 L 166 259 L 93 259 Z M 93 184.855469 " clip-rule="nonzero"/></clipPath><clipPath id="34993c0568"><path d="M 265 184.855469 L 327 184.855469 L 327 261 L 265 261 Z M 265 184.855469 " clip-rule="nonzero"/></clipPath><clipPath id="d91bb1b7fa"><path d="M 58 140 L 82 140 L 82 181.089844 L 58 181.089844 Z M 58 140 " clip-rule="nonzero"/></clipPath><clipPath id="f07c65e428"><path d="M 93 140 L 166 140 L 166 181.089844 L 93 181.089844 Z M 93 140 " clip-rule="nonzero"/></clipPath><clipPath id="603903cde8"><path d="M 265 141 L 327 141 L 327 181.089844 L 265 181.089844 Z M 265 141 " clip-rule="nonzero"/></clipPath></defs><g clip-path="url(#4b94ff9b73)"><rect x="-38.4" fill="url(#744dc56a07)" width="460.8" y="-38.399999" height="460.799983"/></g><g clip-path="url(#51b6116c89)"><g clip-path="url(#dab28886eb)"><g clip-path="url(#91b4220b51)"><path fill="#ffffff" d="M 88.960938 323.105469 C 111.945312 341.359375 139.707031 353.074219 168.789062 356.976562 C 197.3125 360.804688 226.683594 357.074219 253.449219 346.546875 C 280.503906 335.910156 304.632812 318.25 322.707031 295.464844 C 342.886719 270.023438 354.902344 238.882812 358.191406 206.667969 C 360.851562 206.539062 363.472656 205.640625 365.742188 204.277344 C 371.375 200.886719 375.027344 194.3125 373.972656 187.707031 C 372.832031 180.550781 365.847656 174.589844 358.640625 174.523438 C 352.046875 174.464844 345.957031 179.128906 343.382812 185.035156 C 340.792969 190.972656 342.265625 197.40625 346.660156 202.042969 C 349.347656 204.609375 352.648438 206.308594 356.375 206.636719 C 356.4375 206.640625 356.5 206.644531 356.5625 206.648438 C 353.128906 240.253906 340 272.582031 318.160156 298.457031 C 299.242188 320.859375 274.1875 337.710938 246.550781 347.375 C 219.078125 356.984375 189.175781 359.339844 160.566406 354.015625 C 131.425781 348.59375 104.175781 335 82.140625 315.214844 C 60.570312 295.847656 44.3125 270.792969 35.113281 243.328125 C 25.707031 215.242188 24.019531 184.816406 30.464844 155.898438 C 37.121094 126.054688 52.441406 98.492188 73.753906 76.628906 C 94.992188 54.839844 122.132812 39.039062 151.597656 31.453125 C 180.742188 23.953125 211.652344 24.976562 240.347656 33.910156 C 268.171875 42.570312 293.519531 58.671875 313.378906 79.972656 C 328.328125 96.007812 339.992188 115.058594 347.449219 135.675781 C 347.804688 136.660156 349.386719 136.25 349.03125 135.261719 C 339.074219 107.742188 321.792969 83.273438 299.40625 64.449219 C 277.3125 45.875 250.488281 33.078125 222.132812 27.664062 C 192.621094 22.03125 161.839844 24.789062 133.742188 35.390625 C 105.652344 45.984375 80.671875 64.277344 61.820312 87.609375 C 42.746094 111.214844 30.28125 139.902344 26.316406 170 C 22.535156 198.714844 26.699219 228.117188 37.679688 254.867188 C 48.605469 281.488281 66.425781 305.214844 88.960938 323.105469 Z M 347.8125 200.886719 C 345.277344 198.210938 343.679688 194.855469 343.683594 191.132812 C 343.6875 187.886719 344.988281 184.699219 346.980469 182.167969 C 351.117188 176.914062 358.347656 174.4375 364.5 177.632812 C 371.0625 181.042969 374.390625 188.8125 371.3125 195.675781 C 368.667969 201.570312 362.140625 205.878906 355.589844 204.910156 C 352.613281 204.472656 349.96875 202.941406 347.8125 200.886719 Z M 347.8125 200.886719 " fill-opacity="1" fill-rule="nonzero"/></g></g></g><g clip-path="url(#8aa6477dab)"><path fill="#fefefe" d="M 58.984375 199.332031 C 58.984375 194.964844 58.816406 190.429688 58.816406 186.0625 L 58.816406 172.792969 C 58.816406 168.257812 58.984375 163.886719 58.984375 159.351562 L 58.984375 146.082031 C 58.984375 145.410156 58.816406 144.570312 58.816406 143.898438 L 58.816406 143.394531 C 58.984375 142.722656 59.324219 142.050781 59.828125 141.546875 C 60.5 141.210938 61.167969 141.042969 61.675781 140.875 C 62.179688 140.710938 62.847656 140.539062 63.519531 140.539062 C 67.550781 140.539062 71.582031 140.875 75.613281 140.875 C 76.457031 140.875 77.292969 140.875 78.304688 141.042969 C 79.648438 141.378906 80.488281 142.050781 80.992188 143.394531 L 80.992188 145.074219 C 80.992188 149.105469 81.160156 153.136719 81.160156 157 C 81.160156 161.03125 80.65625 165.0625 80.65625 169.09375 L 80.65625 181.023438 C 80.992188 185.054688 80.992188 188.917969 80.992188 192.949219 C 80.992188 196.980469 81.160156 200.84375 81.160156 204.875 C 81.160156 208.90625 81.160156 212.9375 81.160156 216.800781 L 81.160156 228.894531 C 81.160156 232.761719 80.992188 236.792969 80.992188 240.824219 C 80.992188 244.855469 81.160156 248.71875 81.160156 252.75 C 81.160156 253.585938 80.992188 254.429688 80.65625 255.269531 C 80.488281 255.9375 80.320312 256.609375 79.984375 257.113281 C 79.480469 257.617188 78.808594 257.617188 78.304688 257.785156 C 77.464844 257.785156 76.960938 258.125 76.289062 258.125 C 72.425781 258.125 68.226562 257.957031 64.363281 257.957031 C 63.519531 257.957031 62.515625 257.957031 61.675781 257.785156 C 60.160156 257.453125 59.660156 256.609375 59.324219 255.269531 C 59.15625 254.761719 59.15625 254.257812 59.15625 253.585938 C 59.15625 249.050781 58.816406 244.515625 58.816406 239.980469 L 58.816406 226.542969 C 58.816406 222.007812 58.984375 217.472656 58.984375 212.9375 Z M 58.984375 199.332031 " fill-opacity="1" fill-rule="nonzero"/></g><g clip-path="url(#4691efb9c3)"><path fill="#fefefe" d="M 113.242188 257.957031 C 111.054688 257.957031 108.875 258.125 106.519531 258.125 C 102.992188 258.125 99.632812 258.289062 96.105469 258.289062 C 95.773438 258.289062 95.269531 257.957031 94.929688 257.785156 C 94.597656 257.785156 94.09375 257.785156 93.921875 257.285156 C 93.921875 257.113281 93.921875 256.949219 93.753906 256.78125 L 93.921875 256.609375 C 93.921875 256.445312 94.09375 256.277344 94.09375 256.277344 C 94.09375 256.105469 93.753906 256.105469 93.753906 256.105469 L 93.921875 255.9375 C 93.921875 255.773438 93.921875 255.605469 93.921875 255.605469 L 93.753906 254.929688 C 93.753906 250.730469 93.921875 246.699219 93.921875 242.503906 C 93.921875 238.472656 94.09375 234.269531 94.09375 230.238281 C 94.09375 226.039062 94.09375 222.007812 94.09375 217.808594 L 94.09375 205.546875 C 94.09375 201.347656 93.753906 197.316406 93.753906 193.117188 L 93.753906 180.855469 C 93.753906 176.652344 93.921875 172.621094 93.921875 168.421875 C 93.921875 164.390625 93.921875 160.195312 93.921875 156.164062 L 93.921875 143.730469 C 93.921875 143.566406 94.09375 143.394531 93.921875 143.226562 C 93.921875 143.0625 93.753906 142.890625 93.753906 142.722656 C 93.753906 142.554688 94.09375 142.390625 94.09375 142.390625 C 94.09375 142.050781 93.921875 141.714844 93.921875 141.378906 C 94.09375 141.042969 94.425781 140.710938 94.765625 140.539062 C 95.097656 140.539062 95.269531 140.371094 95.433594 140.371094 L 96.445312 140.371094 C 97.117188 140.371094 97.953125 140.710938 98.628906 140.710938 C 101.652344 140.710938 105.179688 140.539062 108.199219 140.710938 C 108.703125 140.875 108.875 141.210938 109.210938 141.210938 C 112.734375 141.546875 115.929688 142.050781 119.457031 143.0625 C 122.3125 143.730469 125 144.570312 127.855469 145.746094 C 128.191406 145.917969 128.695312 146.082031 128.863281 146.421875 L 129.367188 146.921875 C 129.535156 147.09375 129.871094 147.09375 130.207031 147.09375 C 131.214844 147.425781 132.558594 148.433594 133.566406 149.105469 L 136.589844 151.289062 C 137.09375 151.628906 137.429688 151.960938 137.933594 152.296875 L 138.4375 152.804688 C 139.277344 153.472656 140.117188 154.3125 140.957031 155.320312 C 141.292969 155.660156 141.292969 155.824219 141.628906 155.992188 C 141.964844 156.328125 142.300781 156.328125 142.636719 156.328125 C 142.972656 156.328125 143.476562 156.164062 143.8125 155.15625 C 143.8125 154.988281 143.644531 154.648438 143.644531 154.3125 C 143.8125 151.960938 143.8125 149.609375 143.8125 147.257812 C 143.8125 145.917969 143.980469 144.742188 143.980469 143.394531 C 143.980469 143.226562 144.148438 143.0625 144.148438 142.890625 L 144.148438 142.722656 C 144.148438 142.722656 143.980469 142.722656 143.980469 142.722656 L 143.980469 142.21875 C 143.980469 142.050781 143.8125 141.714844 143.980469 141.378906 C 143.980469 141.042969 144.316406 140.539062 144.652344 140.371094 C 144.988281 140.371094 145.15625 140.539062 145.492188 140.539062 C 148.347656 140.539062 151.371094 140.371094 154.394531 140.371094 L 164.136719 140.371094 C 164.472656 140.371094 164.808594 140.710938 165.144531 140.875 C 165.3125 141.042969 165.484375 141.042969 165.484375 141.210938 C 165.648438 141.546875 165.648438 141.886719 165.648438 142.21875 C 165.648438 142.554688 165.984375 142.890625 165.984375 143.226562 C 165.984375 148.773438 165.816406 148.773438 165.816406 154.3125 L 165.816406 165.402344 C 165.816406 170.941406 165.648438 170.941406 165.648438 176.484375 C 165.648438 182.199219 165.984375 182.199219 165.984375 187.742188 C 165.984375 197.820312 165.816406 207.898438 165.816406 217.976562 C 165.816406 222.175781 165.648438 226.375 165.648438 230.574219 C 165.648438 234.773438 165.984375 239.144531 165.984375 243.339844 C 165.984375 247.539062 165.816406 251.742188 165.816406 255.9375 C 165.816406 256.277344 165.984375 256.78125 165.984375 256.949219 C 165.816406 257.617188 165.3125 258.125 164.640625 258.289062 L 163.464844 258.125 C 161.113281 258.125 158.761719 257.957031 156.410156 257.957031 C 153.050781 257.957031 149.523438 258.125 145.996094 258.125 C 145.660156 258.125 145.324219 257.957031 144.988281 257.957031 C 144.484375 257.957031 143.980469 257.785156 143.8125 257.285156 C 143.8125 257.113281 144.148438 256.78125 144.148438 256.609375 C 143.980469 255.269531 143.644531 254.09375 143.644531 252.75 C 143.644531 252.414062 143.980469 252.074219 143.980469 251.742188 L 143.980469 249.722656 C 143.980469 248.886719 143.644531 248.042969 143.644531 247.371094 C 143.644531 247.039062 143.644531 246.867188 143.644531 246.699219 L 143.8125 246.535156 C 143.8125 246.535156 143.644531 246.363281 143.644531 246.363281 L 143.476562 246.363281 C 143.644531 246.03125 143.8125 245.523438 143.8125 245.1875 C 143.476562 235.78125 143.308594 226.375 142.300781 216.96875 C 142.300781 216.632812 142.46875 216.132812 142.300781 215.792969 C 141.964844 212.601562 141.125 209.578125 140.621094 206.386719 L 140.621094 206.21875 C 140.285156 204.035156 139.949219 201.683594 139.445312 199.5 C 139.109375 198.324219 138.605469 197.316406 138.269531 196.308594 C 138.269531 195.804688 137.933594 195.972656 137.765625 195.636719 C 137.597656 194.796875 137.765625 194.125 137.597656 193.621094 C 136.589844 190.765625 135.246094 188.074219 133.902344 185.390625 C 133.902344 185.054688 133.902344 185.054688 133.734375 184.886719 C 133.398438 184.214844 133.0625 183.542969 132.726562 182.867188 L 131.214844 180.351562 C 131.214844 180.183594 131.046875 180.011719 130.878906 179.847656 C 130.878906 179.847656 130.710938 179.847656 130.539062 179.679688 L 130.207031 179.34375 C 129.199219 178.167969 128.359375 176.484375 127.183594 175.3125 C 127.015625 174.976562 126.507812 174.976562 126.175781 174.640625 L 125.671875 174.136719 C 125 173.464844 124.328125 172.621094 123.320312 171.785156 C 122.476562 170.941406 121.472656 170.269531 120.296875 169.433594 C 119.792969 169.265625 119.289062 168.929688 118.785156 168.589844 C 118.617188 168.589844 118.617188 168.421875 118.445312 168.421875 C 118.28125 168.257812 117.777344 168.257812 117.441406 168.257812 L 117.441406 168.421875 C 116.9375 168.421875 116.261719 168.421875 116.097656 168.929688 C 115.929688 169.09375 116.261719 169.597656 116.097656 170.105469 C 116.097656 171.28125 115.929688 172.453125 115.929688 173.796875 L 115.929688 174.472656 C 115.929688 178.332031 116.097656 182.199219 116.097656 186.0625 C 116.097656 189.753906 115.929688 193.621094 115.929688 197.484375 C 115.929688 201.347656 116.097656 205.210938 116.097656 209.074219 C 116.097656 212.769531 116.097656 216.632812 116.097656 220.496094 L 116.097656 232.085938 C 116.097656 235.78125 115.761719 239.648438 115.761719 243.507812 L 115.761719 256.445312 C 115.761719 256.78125 116.097656 257.113281 115.929688 257.285156 C 115.761719 257.785156 115.425781 258.125 114.921875 258.125 C 114.414062 258.289062 113.746094 258.289062 113.242188 258.289062 Z M 113.242188 257.957031 " fill-opacity="1" fill-rule="nonzero"/></g><path fill="#fefefe" d="M 191.550781 247.230469 C 191.550781 250.546875 191.242188 253.96875 191.242188 257.289062 C 191.242188 257.597656 191.449219 258.011719 191.449219 258.324219 L 191.449219 258.53125 C 191.34375 258.84375 190.929688 259.050781 190.621094 259.152344 C 190.308594 259.363281 190 259.464844 189.582031 259.570312 L 189.375 259.570312 C 185.953125 259.570312 182.53125 259.363281 179.210938 259.363281 C 178.898438 259.363281 178.695312 259.363281 178.488281 259.257812 C 178.175781 259.257812 177.96875 259.257812 177.863281 259.050781 C 177.554688 258.949219 177.34375 258.84375 177.34375 258.53125 C 177.242188 258.429688 177.136719 258.324219 177.136719 258.117188 C 177.035156 257.808594 177.035156 257.496094 177.035156 257.183594 L 177.035156 249.925781 C 177.035156 247.539062 177.035156 245.050781 177.035156 242.667969 L 177.035156 235.304688 C 177.035156 232.917969 177.242188 230.429688 177.242188 228.042969 C 177.242188 225.554688 177.035156 223.171875 177.035156 220.679688 C 177.035156 218.089844 177.242188 215.496094 177.242188 212.800781 C 177.242188 210.207031 177.035156 207.613281 177.035156 204.917969 C 177.035156 202.324219 177.136719 199.734375 177.136719 197.035156 C 177.136719 194.445312 177.242188 191.851562 177.242188 189.15625 C 177.242188 188.84375 177.242188 188.535156 177.34375 188.222656 C 177.449219 187.703125 177.761719 187.394531 178.277344 187.289062 C 178.488281 187.183594 178.695312 187.183594 178.898438 187.183594 C 180.972656 187.183594 189.375 187.183594 191.449219 187.183594 L 197.773438 187.183594 C 198.191406 187.183594 198.707031 187.082031 199.125 187.082031 L 199.953125 187.082031 C 200.160156 187.082031 200.265625 187.289062 200.46875 187.289062 C 201.507812 187.496094 202.652344 187.601562 203.6875 187.914062 C 204.726562 188.222656 205.761719 188.535156 206.691406 188.949219 C 207.109375 189.050781 207.523438 189.257812 207.832031 189.363281 C 208.457031 189.777344 209.183594 189.988281 209.804688 190.398438 C 210.21875 190.609375 210.425781 191.019531 210.738281 191.230469 C 211.257812 191.539062 211.671875 191.851562 212.191406 192.164062 L 213.535156 193.09375 C 213.953125 193.511719 214.367188 194.132812 214.785156 194.546875 L 215.714844 195.378906 C 215.925781 195.6875 216.234375 196.101562 216.546875 196.414062 L 216.859375 196.832031 C 217.375 197.554688 217.789062 198.386719 218.308594 199.109375 C 218.621094 199.835938 219.035156 200.457031 219.34375 201.082031 C 219.554688 201.601562 219.863281 202.011719 220.074219 202.429688 C 220.277344 202.945312 220.488281 203.464844 220.589844 203.984375 C 220.898438 204.816406 221.109375 205.75 221.316406 206.578125 C 221.417969 207.199219 221.316406 207.820312 221.316406 208.445312 C 221.417969 208.855469 221.628906 209.167969 221.628906 209.585938 C 221.628906 209.6875 221.523438 209.6875 221.523438 209.6875 C 221.628906 210.308594 221.730469 210.929688 221.730469 211.554688 C 221.730469 211.96875 221.628906 212.488281 221.628906 212.902344 C 221.523438 214.148438 221.417969 215.289062 221.109375 216.429688 C 221.007812 217.050781 220.796875 217.570312 220.589844 218.089844 C 220.382812 218.710938 220.175781 219.226562 219.96875 219.851562 L 219.65625 220.992188 C 219.449219 221.300781 219.449219 221.613281 219.34375 221.925781 C 219.136719 222.238281 218.824219 222.441406 218.621094 222.753906 L 218 224.101562 C 217.582031 224.621094 217.269531 225.246094 216.859375 225.761719 C 216.546875 226.28125 216.027344 226.695312 215.714844 227.109375 C 215.507812 227.421875 215.300781 227.628906 215.09375 227.835938 C 214.886719 228.042969 214.679688 228.25 214.472656 228.5625 L 212.914062 229.910156 C 212.191406 230.535156 211.570312 231.15625 210.738281 231.671875 C 210.117188 232.089844 209.496094 232.5 208.765625 232.8125 C 208.144531 233.125 207.523438 233.433594 207.003906 233.746094 C 205.96875 234.164062 204.828125 234.472656 203.792969 234.785156 C 202.960938 235.09375 202.132812 235.199219 201.300781 235.304688 C 200.886719 235.40625 200.46875 235.40625 200.058594 235.507812 L 198.707031 235.507812 C 198.191406 235.613281 197.671875 235.613281 197.253906 235.613281 C 195.808594 235.613281 194.457031 235.507812 193.003906 235.507812 C 192.796875 235.507812 192.589844 235.71875 192.28125 235.71875 C 191.96875 235.820312 191.660156 236.132812 191.550781 236.546875 C 191.550781 236.859375 191.449219 237.066406 191.449219 237.273438 C 191.449219 238.519531 191.550781 244.222656 191.550781 247.230469 Z M 191.449219 211.242188 C 191.449219 211.867188 191.34375 212.59375 191.34375 213.214844 C 191.34375 213.941406 191.449219 214.5625 191.449219 215.289062 C 191.449219 216.636719 191.550781 218.089844 191.550781 219.539062 L 191.449219 220.265625 C 191.449219 220.679688 191.96875 221.097656 192.382812 221.097656 C 192.589844 221.097656 192.796875 221.199219 193.105469 221.199219 C 194.457031 221.199219 195.910156 221.300781 197.363281 221.300781 C 197.671875 221.300781 197.984375 221.40625 198.292969 221.300781 C 198.914062 221.300781 199.539062 221.097656 200.160156 220.992188 L 201.402344 220.367188 C 201.921875 220.164062 202.339844 219.851562 202.753906 219.539062 C 203.273438 219.226562 203.582031 218.917969 203.996094 218.605469 C 204.515625 218.191406 204.929688 217.777344 205.242188 217.257812 C 205.449219 216.949219 205.65625 216.738281 205.761719 216.429688 C 205.96875 216.21875 206.175781 215.910156 206.28125 215.703125 C 206.589844 215.078125 206.902344 214.667969 207.109375 214.042969 C 207.109375 213.835938 207.003906 213.523438 207.109375 213.214844 C 207.210938 212.695312 207.421875 212.074219 207.421875 211.449219 C 207.421875 211.140625 207.210938 210.828125 207.210938 210.621094 L 207.210938 209.792969 C 207.109375 209.480469 207.210938 209.066406 207.109375 208.753906 C 207.003906 208.339844 206.902344 207.925781 206.691406 207.511719 C 206.488281 206.992188 206.175781 206.472656 205.867188 205.957031 C 205.550781 205.4375 205.136719 204.917969 204.617188 204.398438 C 204.515625 204.296875 204.308594 204.296875 204.101562 204.195312 C 203.6875 203.675781 203.273438 203.15625 202.753906 202.84375 C 202.234375 202.53125 201.714844 202.324219 201.199219 202.121094 C 200.058594 201.601562 198.8125 201.496094 197.464844 201.496094 L 196.738281 201.601562 C 196.53125 201.496094 196.429688 201.390625 196.21875 201.390625 C 195.078125 201.390625 193.9375 201.390625 192.695312 201.496094 C 192.484375 201.496094 192.28125 201.496094 192.175781 201.601562 C 191.863281 201.703125 191.761719 201.808594 191.660156 202.011719 C 191.550781 202.324219 191.550781 202.636719 191.550781 202.945312 L 191.550781 207.09375 C 191.550781 208.132812 191.660156 209.066406 191.550781 210.105469 C 191.550781 210.519531 191.449219 210.929688 191.449219 211.242188 Z M 191.449219 211.242188 " fill-opacity="1" fill-rule="nonzero"/><path fill="#fefefe" d="M 270.46875 214.253906 C 270.46875 217.050781 270.777344 219.851562 270.777344 222.753906 C 270.777344 225.554688 270.675781 228.460938 270.675781 231.257812 L 270.675781 239.761719 C 270.675781 240.074219 270.46875 240.382812 270.46875 240.695312 C 270.570312 241.007812 270.675781 241.214844 270.675781 241.417969 C 270.675781 241.9375 270.570312 242.355469 270.46875 242.871094 C 270.367188 243.390625 270.257812 243.910156 270.15625 244.324219 L 269.847656 246.296875 C 269.738281 246.503906 269.636719 246.816406 269.636719 247.019531 C 269.535156 247.125 269.429688 247.230469 269.429688 247.332031 C 269.222656 247.851562 269.117188 248.371094 268.914062 248.78125 C 268.601562 249.40625 268.082031 250.027344 267.667969 250.652344 C 267.460938 251.167969 267.253906 251.6875 266.839844 252.101562 C 266.527344 252.519531 266.214844 252.929688 265.902344 253.347656 L 264.660156 254.59375 C 264.347656 254.800781 264.039062 255.113281 263.828125 255.316406 C 263.414062 255.734375 262.894531 255.9375 262.484375 256.355469 C 261.964844 256.664062 261.445312 257.078125 260.820312 257.390625 C 260.410156 257.597656 259.992188 257.910156 259.476562 258.117188 C 258.855469 258.429688 258.335938 258.84375 257.714844 259.152344 C 257.296875 259.257812 256.882812 259.257812 256.570312 259.363281 C 256.363281 259.464844 256.050781 259.464844 255.84375 259.570312 C 255.742188 259.570312 255.742188 259.671875 255.640625 259.773438 C 254.910156 259.882812 254.289062 259.882812 253.566406 259.882812 C 253.253906 259.984375 252.835938 260.085938 252.527344 260.085938 L 252.113281 260.085938 C 252.007812 260.085938 251.800781 260.191406 251.695312 260.191406 L 251.695312 260.085938 C 251.386719 259.984375 251.074219 260.398438 250.761719 260.292969 C 250.351562 260.292969 249.933594 260.292969 249.417969 260.191406 C 249 260.191406 248.484375 260.191406 248.066406 260.085938 C 247.546875 259.984375 247.03125 259.882812 246.410156 259.773438 L 245.578125 259.570312 C 244.957031 259.363281 244.335938 259.050781 243.710938 258.84375 C 242.988281 258.53125 242.15625 258.324219 241.433594 257.910156 C 240.703125 257.496094 240.1875 256.875 239.5625 256.457031 C 239.046875 256.144531 238.628906 255.734375 238.214844 255.421875 C 237.59375 254.902344 236.972656 254.59375 236.453125 254.074219 C 236.144531 253.761719 235.933594 253.140625 235.625 252.828125 C 235.210938 252.308594 234.792969 251.6875 234.480469 251.167969 C 234.070312 250.546875 233.445312 249.925781 233.136719 249.199219 C 232.71875 248.472656 232.617188 247.539062 232.304688 246.710938 L 231.890625 245.363281 C 231.890625 244.945312 231.683594 244.636719 231.578125 244.222656 C 231.476562 243.910156 231.476562 243.601562 231.371094 243.183594 C 231.265625 242.769531 231.371094 242.25 231.371094 241.730469 C 231.371094 241.417969 231.0625 241.109375 231.0625 240.796875 L 231.0625 240.074219 C 231.0625 237.582031 231.164062 235.09375 231.164062 232.609375 C 231.164062 230.222656 231.265625 227.730469 231.265625 225.246094 C 231.265625 222.753906 231.164062 220.265625 231.164062 217.882812 C 231.164062 215.390625 231.164062 212.902344 231.164062 210.414062 L 231.164062 203.050781 C 231.164062 200.5625 231.265625 198.074219 231.265625 195.6875 C 231.265625 193.199219 231.164062 190.710938 231.164062 188.222656 C 231.164062 188.015625 231.265625 187.804688 231.371094 187.496094 C 231.476562 187.289062 231.476562 186.976562 231.785156 186.875 L 232.097656 186.875 C 234.070312 186.875 236.039062 187.082031 237.90625 187.082031 C 239.875 187.082031 241.742188 186.976562 243.710938 186.976562 C 243.816406 186.976562 243.917969 187.082031 244.128906 187.082031 C 244.335938 187.082031 244.648438 187.183594 244.648438 187.289062 C 244.75 187.496094 244.75 187.703125 244.75 187.914062 C 244.75 188.015625 244.648438 188.117188 244.648438 188.222656 C 244.648438 190.710938 244.75 193.09375 244.75 195.585938 L 244.75 202.84375 C 244.75 205.230469 244.542969 207.71875 244.542969 210.105469 C 244.542969 212.59375 244.648438 214.976562 244.648438 217.464844 C 244.648438 219.851562 244.542969 222.339844 244.542969 224.726562 L 244.542969 231.984375 C 244.542969 234.472656 244.542969 236.859375 244.542969 239.34375 L 244.542969 239.863281 C 244.4375 239.863281 244.75 239.96875 244.75 240.074219 C 244.75 240.28125 244.542969 240.488281 244.542969 240.59375 C 244.648438 240.902344 244.648438 241.316406 244.75 241.628906 C 244.851562 242.148438 245.058594 242.667969 245.269531 243.183594 C 245.472656 243.601562 245.785156 243.910156 246.097656 244.324219 C 246.511719 244.84375 247.03125 245.257812 247.652344 245.675781 C 248.171875 245.984375 248.796875 246.296875 249.417969 246.398438 C 249.832031 246.605469 250.246094 246.710938 250.660156 246.710938 C 251.386719 246.710938 252.007812 246.503906 252.734375 246.296875 C 253.457031 246.085938 254.1875 245.777344 254.808594 245.257812 C 255.121094 245.050781 255.328125 244.84375 255.53125 244.636719 C 255.742188 244.429688 256.050781 244.222656 256.160156 244.011719 C 256.46875 243.492188 256.675781 242.976562 256.78125 242.457031 C 256.984375 242.042969 257.195312 241.628906 257.195312 241.214844 C 257.195312 240.902344 257.296875 240.59375 257.296875 240.28125 C 257.296875 240.175781 257.296875 240.074219 257.296875 240.074219 L 257.296875 239.761719 C 257.296875 239.554688 256.984375 239.34375 256.984375 239.140625 C 256.984375 236.648438 257.195312 234.265625 257.195312 231.777344 C 257.195312 229.394531 257.089844 227.007812 257.089844 224.515625 L 257.089844 217.257812 C 257.089844 214.875 257.296875 212.488281 257.296875 210 C 257.296875 207.613281 257.089844 205.230469 257.089844 202.742188 C 257.089844 200.355469 257.195312 197.972656 257.195312 195.480469 C 257.195312 193.09375 257.296875 190.710938 257.296875 188.222656 C 257.296875 188.015625 257.089844 187.804688 257.195312 187.601562 C 257.296875 187.183594 257.503906 187.082031 257.917969 187.082031 C 258.023438 187.082031 258.125 186.875 258.125 186.875 C 260.097656 186.875 261.964844 187.082031 263.933594 187.082031 C 265.800781 187.082031 267.773438 186.875 269.636719 186.875 C 269.847656 186.875 269.949219 186.875 270.15625 186.976562 C 270.367188 186.976562 270.46875 187.183594 270.46875 187.394531 L 270.675781 187.914062 C 270.675781 188.015625 270.46875 188.222656 270.46875 188.324219 C 270.46875 191.125 270.675781 194.027344 270.675781 196.933594 C 270.675781 199.835938 270.570312 202.742188 270.570312 205.539062 C 270.570312 208.445312 270.46875 211.347656 270.46875 214.253906 Z M 270.46875 214.253906 " fill-opacity="1" fill-rule="nonzero"/><g clip-path="url(#34993c0568)"><path fill="#fefefe" d="M 307.984375 211.832031 C 307.984375 225.78125 307.8125 239.902344 307.644531 254.027344 C 307.644531 255.726562 307.644531 257.59375 306.285156 258.789062 C 305.261719 259.808594 303.730469 259.980469 302.371094 259.980469 C 298.113281 260.148438 294.035156 260.148438 289.949219 259.808594 C 288.417969 259.808594 286.714844 259.636719 285.355469 258.789062 C 283.824219 257.765625 283.824219 256.234375 283.992188 254.535156 C 284.164062 252.492188 283.992188 250.28125 283.992188 248.238281 L 283.992188 234.117188 C 283.992188 224.589844 283.992188 215.234375 283.992188 205.703125 L 283.992188 170.148438 C 283.992188 168.785156 283.824219 167.253906 282.972656 166.234375 C 281.953125 165.382812 280.421875 165.210938 279.058594 165.382812 L 273.105469 165.382812 C 270.722656 165.382812 268.003906 165.210938 266.472656 163.34375 C 265.449219 161.980469 265.449219 160.105469 265.449219 158.40625 C 265.449219 155.171875 265.449219 151.769531 265.621094 148.539062 C 265.621094 146.15625 265.789062 143.433594 267.832031 142.246094 C 268.851562 141.5625 270.210938 141.390625 271.574219 141.390625 C 288.078125 140.882812 304.582031 140.882812 321.082031 141.5625 C 322.277344 141.5625 323.636719 141.5625 324.65625 142.414062 C 325.679688 143.433594 325.847656 144.796875 326.015625 146.15625 C 326.527344 151.09375 326.527344 156.027344 326.1875 160.960938 C 326.015625 162.148438 326.015625 163.171875 325.167969 164.019531 C 324.316406 164.875 323.125 165.042969 321.9375 165.210938 C 319.042969 165.382812 316.148438 165.382812 313.429688 165.210938 C 312.234375 165.210938 311.214844 165.210938 310.195312 165.550781 C 307.984375 166.574219 307.8125 169.464844 307.8125 171.847656 C 307.8125 185.117188 307.984375 198.386719 307.984375 211.832031 Z M 307.984375 211.832031 " fill-opacity="1" fill-rule="nonzero"/></g><path fill="#fefefe" d="M 186.875 141.597656 C 186.507812 141.597656 186.144531 141.699219 185.828125 141.699219 C 185.773438 141.699219 185.773438 141.699219 185.71875 141.699219 L 185.511719 141.699219 C 185.457031 141.699219 185.40625 141.699219 185.355469 141.699219 L 185.246094 141.699219 C 185.039062 141.699219 184.773438 141.699219 184.515625 141.753906 C 184.09375 141.859375 183.675781 142.015625 183.253906 142.171875 C 182.890625 142.277344 182.464844 142.433594 182.101562 142.644531 C 181.734375 142.855469 181.3125 142.960938 181 143.222656 C 180.738281 143.433594 180.421875 143.695312 180.15625 143.957031 L 180.210938 144.0625 C 180.054688 144.167969 179.84375 144.21875 179.792969 144.324219 C 179.792969 144.324219 179.84375 144.378906 179.84375 144.429688 L 179.683594 144.535156 C 179.527344 144.691406 179.425781 144.796875 179.265625 144.953125 L 178.691406 145.6875 C 178.480469 146.003906 178.273438 146.316406 178.113281 146.6875 C 178.007812 146.789062 178.007812 146.949219 177.902344 147.105469 C 177.746094 147.367188 177.585938 147.679688 177.484375 147.996094 C 177.328125 148.3125 177.328125 148.679688 177.21875 148.996094 L 177.0625 149.519531 C 177.011719 149.78125 176.855469 149.992188 176.800781 150.253906 C 176.75 150.515625 176.800781 150.777344 176.800781 151.042969 C 176.75 151.199219 176.75 151.40625 176.695312 151.617188 C 176.695312 151.617188 176.75 151.667969 176.695312 151.667969 C 176.695312 151.878906 176.695312 152.089844 176.75 152.25 C 176.75 152.511719 176.695312 152.722656 176.695312 152.929688 C 176.695312 153.035156 176.800781 153.195312 176.800781 153.296875 L 176.957031 154.136719 C 177.011719 154.347656 176.957031 154.609375 177.011719 154.820312 C 177.117188 155.132812 177.328125 155.394531 177.429688 155.660156 C 177.484375 155.867188 177.484375 156.078125 177.585938 156.238281 C 177.691406 156.550781 177.847656 156.8125 178.007812 157.128906 C 178.164062 157.339844 178.273438 157.652344 178.480469 157.96875 C 178.636719 158.230469 178.902344 158.4375 179.109375 158.703125 C 179.320312 159.019531 179.476562 159.382812 179.683594 159.699219 C 179.84375 159.960938 180.054688 160.171875 180.265625 160.433594 C 180.472656 160.695312 180.628906 161.011719 180.839844 161.273438 C 181 161.484375 181.101562 161.746094 181.261719 161.957031 L 182.046875 162.902344 C 182.308594 163.320312 182.519531 163.738281 182.835938 164.15625 C 183.046875 164.421875 183.253906 164.628906 183.410156 164.945312 C 183.675781 165.261719 183.992188 165.628906 184.199219 165.992188 C 184.410156 166.308594 184.515625 166.625 184.617188 166.992188 C 184.726562 167.308594 184.773438 167.621094 184.773438 167.9375 C 184.773438 168.144531 184.828125 168.300781 184.828125 168.515625 L 184.828125 168.617188 C 184.828125 168.773438 184.726562 168.882812 184.671875 168.984375 C 184.617188 169.144531 184.515625 169.300781 184.460938 169.511719 C 184.355469 169.671875 184.253906 169.878906 184.09375 170.089844 C 183.882812 170.351562 183.675781 170.5625 183.410156 170.769531 C 183.203125 170.875 182.992188 171.082031 182.730469 171.191406 C 182.417969 171.347656 182.046875 171.507812 181.679688 171.609375 C 181.367188 171.714844 181.054688 171.714844 180.738281 171.714844 C 180.527344 171.765625 180.367188 171.765625 180.15625 171.765625 C 180.109375 171.765625 179.949219 171.871094 179.898438 171.871094 C 179.84375 171.871094 179.792969 171.871094 179.792969 171.871094 L 179.738281 171.871094 C 179.582031 171.871094 179.476562 171.765625 179.320312 171.765625 C 179.214844 171.765625 179.058594 171.714844 178.902344 171.714844 C 178.847656 171.714844 178.847656 171.714844 178.792969 171.714844 L 178.585938 171.714844 C 178.53125 171.714844 178.480469 171.714844 178.429688 171.714844 L 178.320312 171.714844 C 178.164062 171.714844 177.800781 171.664062 177.691406 171.714844 C 177.585938 171.820312 177.585938 171.925781 177.585938 172.082031 C 177.585938 172.1875 177.484375 172.34375 177.484375 172.449219 L 177.484375 177.382812 C 177.484375 177.539062 177.585938 177.695312 177.640625 177.851562 C 177.640625 178.0625 177.746094 178.167969 177.902344 178.273438 C 178.007812 178.324219 178.164062 178.433594 178.320312 178.480469 C 178.585938 178.589844 178.847656 178.640625 179.109375 178.695312 C 179.371094 178.746094 179.636719 178.746094 179.792969 178.796875 C 180.054688 178.851562 180.316406 178.953125 180.527344 179.007812 L 180.628906 179.007812 C 180.683594 179.007812 180.789062 178.953125 180.894531 178.953125 L 182.101562 179.007812 C 182.101562 179.007812 182.101562 179.007812 182.152344 179.007812 L 182.152344 178.90625 C 182.152344 178.90625 182.207031 178.90625 182.207031 178.90625 L 182.464844 178.90625 C 182.574219 178.953125 182.625 178.953125 182.730469 178.953125 L 182.78125 178.953125 C 183.148438 178.90625 183.464844 178.851562 183.832031 178.746094 C 184.304688 178.640625 184.726562 178.378906 185.199219 178.167969 C 185.617188 178.007812 186.035156 177.960938 186.351562 177.75 C 186.613281 177.589844 186.875 177.433594 187.082031 177.277344 L 187.507812 176.960938 C 187.714844 176.804688 187.980469 176.644531 188.1875 176.4375 C 188.34375 176.332031 188.5 176.171875 188.660156 176.015625 C 188.921875 175.808594 189.183594 175.597656 189.445312 175.28125 C 189.550781 175.179688 189.65625 175.019531 189.761719 174.863281 C 189.972656 174.652344 190.128906 174.390625 190.289062 174.128906 C 190.496094 173.863281 190.550781 173.550781 190.707031 173.234375 C 190.917969 172.816406 191.230469 172.449219 191.386719 172.027344 C 191.542969 171.554688 191.703125 171.082031 191.808594 170.609375 L 191.964844 169.828125 C 192.015625 169.5625 192.015625 169.300781 192.015625 169.039062 C 192.070312 168.828125 192.070312 168.617188 192.125 168.410156 L 192.070312 168.355469 C 192.125 168.144531 192.125 167.9375 192.125 167.726562 L 192.125 167.097656 C 192.125 166.9375 192.070312 166.835938 192.070312 166.675781 C 192.015625 166.519531 192.070312 166.363281 192.015625 166.203125 C 191.964844 165.890625 191.914062 165.523438 191.808594 165.210938 L 191.492188 164.15625 C 191.441406 164 191.335938 163.84375 191.230469 163.683594 C 191.125 163.421875 190.96875 163.109375 190.808594 162.847656 C 190.761719 162.691406 190.652344 162.53125 190.550781 162.375 C 190.390625 162.164062 190.335938 161.957031 190.179688 161.746094 C 190.023438 161.535156 189.761719 161.375 189.65625 161.113281 C 189.445312 160.90625 189.34375 160.644531 189.183594 160.382812 L 188.765625 159.75 C 188.554688 159.539062 188.453125 159.277344 188.292969 159.019531 C 188.082031 158.753906 187.871094 158.546875 187.664062 158.230469 C 187.507812 158.019531 187.296875 157.8125 187.136719 157.546875 C 186.925781 157.285156 186.769531 157.074219 186.5625 156.8125 L 186.035156 156.183594 C 185.929688 155.972656 185.773438 155.765625 185.617188 155.550781 C 185.457031 155.292969 185.300781 155.03125 185.089844 154.820312 C 184.933594 154.558594 184.828125 154.292969 184.671875 154.085938 C 184.566406 153.929688 184.515625 153.769531 184.410156 153.558594 L 184.09375 152.824219 C 184.042969 152.5625 183.9375 152.300781 183.9375 151.984375 L 183.992188 151.777344 C 183.992188 151.511719 184.148438 151.25 184.253906 150.988281 C 184.304688 150.832031 184.253906 150.675781 184.304688 150.515625 C 184.355469 150.304688 184.515625 150.148438 184.617188 149.992188 L 184.988281 149.519531 C 185.144531 149.359375 185.355469 149.203125 185.5625 149.097656 C 185.773438 148.890625 185.984375 148.785156 186.191406 148.625 C 186.507812 148.523438 186.824219 148.417969 187.191406 148.367188 C 187.398438 148.367188 187.554688 148.3125 187.714844 148.3125 L 187.871094 148.3125 C 187.980469 148.367188 188.136719 148.417969 188.238281 148.417969 L 188.292969 148.417969 C 188.5 148.367188 188.609375 148.261719 188.660156 148.105469 C 188.710938 147.996094 188.710938 147.894531 188.710938 147.789062 C 188.710938 146.894531 188.765625 146.003906 188.765625 145.113281 L 188.660156 145.113281 C 188.660156 144.324219 188.660156 143.535156 188.660156 142.75 L 188.660156 142.433594 C 188.660156 142.277344 188.710938 142.121094 188.609375 141.960938 C 188.554688 141.910156 188.453125 141.910156 188.398438 141.859375 C 188.238281 141.804688 188.136719 141.753906 188.027344 141.753906 C 188.027344 141.699219 187.980469 141.699219 187.980469 141.699219 C 187.925781 141.699219 187.925781 141.753906 187.871094 141.753906 C 187.820312 141.753906 187.769531 141.753906 187.714844 141.753906 L 187.664062 141.753906 C 187.664062 141.753906 186.71875 141.542969 186.875 141.597656 Z M 186.875 141.597656 " fill-opacity="1" fill-rule="nonzero"/><path fill="#fefefe" d="M 196.894531 160.222656 C 196.894531 158.859375 196.84375 157.441406 196.84375 156.078125 L 196.84375 151.933594 C 196.84375 150.515625 196.894531 149.152344 196.894531 147.734375 L 196.894531 143.589844 C 196.894531 143.378906 196.84375 143.117188 196.84375 142.90625 L 196.84375 142.75 C 196.894531 142.542969 197.003906 142.332031 197.160156 142.171875 C 197.367188 142.070312 197.578125 142.015625 197.734375 141.960938 C 197.894531 141.910156 198.105469 141.859375 198.3125 141.859375 C 199.570312 141.859375 200.832031 141.960938 202.09375 141.960938 C 202.351562 141.960938 202.613281 141.960938 202.929688 142.015625 C 203.347656 142.121094 203.613281 142.332031 203.769531 142.75 L 203.769531 143.277344 C 203.769531 144.535156 203.820312 145.796875 203.820312 147 C 203.820312 148.261719 203.664062 149.519531 203.664062 150.777344 L 203.664062 154.503906 C 203.769531 155.765625 203.769531 156.96875 203.769531 158.230469 C 203.769531 159.488281 203.820312 160.695312 203.820312 161.957031 C 203.820312 163.214844 203.820312 164.472656 203.820312 165.679688 L 203.820312 169.457031 C 203.820312 170.664062 203.769531 171.925781 203.769531 173.183594 C 203.769531 174.445312 203.820312 175.652344 203.820312 176.910156 C 203.820312 177.171875 203.769531 177.433594 203.664062 177.695312 C 203.613281 177.90625 203.558594 178.117188 203.457031 178.273438 C 203.296875 178.433594 203.085938 178.433594 202.929688 178.480469 C 202.667969 178.480469 202.511719 178.589844 202.300781 178.589844 C 201.09375 178.589844 199.785156 178.535156 198.574219 178.535156 C 198.3125 178.535156 197.996094 178.535156 197.734375 178.480469 C 197.261719 178.378906 197.105469 178.117188 197.003906 177.695312 C 196.949219 177.539062 196.949219 177.382812 196.949219 177.171875 C 196.949219 175.753906 196.84375 174.335938 196.84375 172.921875 L 196.84375 168.726562 C 196.84375 167.308594 196.894531 165.890625 196.894531 164.472656 Z M 196.894531 160.222656 " fill-opacity="1" fill-rule="nonzero"/><path fill="#fefefe" d="M 230.316406 168.09375 C 230.316406 169.199219 230.269531 170.296875 230.269531 171.398438 C 230.269531 172.5 230.316406 173.550781 230.316406 174.652344 C 230.316406 175.753906 230.214844 176.855469 230.214844 177.960938 C 230.214844 178.0625 230.214844 178.167969 230.160156 178.273438 C 230.109375 178.378906 230.109375 178.480469 229.953125 178.535156 L 229.691406 178.535156 C 228.535156 178.535156 227.433594 178.535156 226.28125 178.535156 L 225.648438 178.535156 C 225.542969 178.480469 225.386719 178.433594 225.28125 178.433594 L 224.445312 178.433594 C 224.234375 178.378906 223.972656 178.378906 223.707031 178.324219 C 223.183594 178.222656 222.65625 178.0625 222.136719 177.90625 C 221.871094 177.851562 221.609375 177.851562 221.347656 177.75 C 221.03125 177.644531 220.769531 177.433594 220.453125 177.328125 L 219.875 177.171875 C 219.617188 177.015625 219.300781 176.910156 219.039062 176.804688 C 218.828125 176.699219 218.671875 176.542969 218.511719 176.488281 C 218.199219 176.332031 217.882812 176.171875 217.621094 176.015625 C 217.464844 175.964844 217.359375 175.808594 217.253906 175.699219 C 216.730469 175.386719 216.148438 175.125 215.679688 174.757812 C 215.46875 174.601562 215.257812 174.390625 214.996094 174.234375 C 214.839844 174.074219 214.683594 173.972656 214.472656 173.816406 C 214.472656 173.761719 214.421875 173.761719 214.421875 173.707031 C 214.15625 173.445312 213.894531 173.132812 213.582031 172.816406 L 213.160156 172.34375 C 213.003906 172.1875 212.792969 172.027344 212.636719 171.820312 C 212.476562 171.609375 212.429688 171.347656 212.269531 171.136719 C 212.003906 170.824219 211.746094 170.507812 211.53125 170.140625 C 211.324219 169.773438 211.011719 169.457031 210.800781 169.089844 C 210.695312 168.882812 210.695312 168.566406 210.539062 168.355469 C 210.277344 167.78125 210.011719 167.253906 209.804688 166.625 C 209.75 166.417969 209.648438 166.203125 209.59375 165.992188 C 209.488281 165.734375 209.332031 165.472656 209.277344 165.210938 C 209.175781 165 209.222656 164.738281 209.175781 164.472656 C 209.066406 164.210938 209.015625 163.949219 208.964844 163.683594 L 208.804688 162.742188 C 208.75 162.53125 208.648438 162.269531 208.648438 162.058594 C 208.648438 161.902344 208.75 161.800781 208.703125 161.691406 C 208.703125 161.640625 208.648438 161.640625 208.648438 161.640625 C 208.648438 161.375 208.59375 161.0625 208.59375 160.800781 L 208.59375 160.589844 C 208.542969 160.539062 208.542969 160.484375 208.542969 160.484375 C 208.59375 160.277344 208.59375 160.121094 208.542969 159.960938 L 208.59375 159.910156 C 208.648438 159.699219 208.542969 159.539062 208.542969 159.382812 L 208.703125 158.703125 C 208.703125 158.59375 208.703125 158.492188 208.75 158.386719 C 208.75 158.175781 208.804688 157.96875 208.859375 157.703125 C 208.859375 157.496094 208.910156 157.285156 208.964844 157.074219 C 208.964844 156.8125 208.964844 156.550781 209.015625 156.339844 C 209.066406 156.023438 209.066406 155.765625 209.175781 155.503906 C 209.222656 155.238281 209.382812 154.976562 209.433594 154.714844 C 209.488281 154.660156 209.488281 154.660156 209.488281 154.609375 C 209.59375 154.242188 209.75 153.929688 209.90625 153.613281 C 209.960938 153.457031 209.960938 153.242188 210.011719 153.085938 C 210.121094 152.824219 210.328125 152.5625 210.484375 152.300781 C 210.484375 152.25 210.484375 152.140625 210.539062 152.039062 C 210.800781 151.617188 211.011719 151.199219 211.273438 150.832031 C 211.484375 150.460938 211.640625 150.148438 211.847656 149.832031 C 212.003906 149.625 212.113281 149.359375 212.269531 149.152344 C 212.429688 148.941406 212.585938 148.734375 212.792969 148.574219 C 212.898438 148.417969 213.003906 148.3125 213.160156 148.152344 C 213.371094 147.945312 213.527344 147.632812 213.738281 147.367188 C 213.839844 147.261719 214.054688 147.261719 214.15625 147.160156 L 214.472656 146.789062 C 214.578125 146.6875 214.738281 146.578125 214.894531 146.476562 L 215.15625 146.214844 C 215.257812 146.160156 215.3125 145.953125 215.417969 145.898438 C 215.628906 145.6875 215.890625 145.53125 216.101562 145.324219 C 216.574219 145.007812 217.046875 144.742188 217.519531 144.480469 C 217.832031 144.269531 218.144531 144.113281 218.410156 143.957031 C 218.722656 143.800781 219.089844 143.695312 219.402344 143.535156 C 219.875 143.328125 220.402344 143.117188 220.925781 142.960938 C 221.191406 142.855469 221.453125 142.804688 221.664062 142.699219 C 221.925781 142.644531 222.136719 142.542969 222.398438 142.433594 C 222.605469 142.382812 222.761719 142.277344 222.972656 142.226562 C 223.128906 142.171875 223.289062 142.171875 223.445312 142.121094 C 223.65625 142.070312 223.917969 142.171875 224.128906 142.171875 C 224.335938 142.121094 224.546875 141.960938 224.757812 141.960938 C 224.914062 141.910156 225.125 142.015625 225.335938 141.960938 L 225.648438 141.960938 C 225.808594 141.910156 225.910156 141.910156 226.015625 141.910156 C 226.121094 141.910156 226.226562 141.859375 226.332031 141.804688 L 226.855469 141.804688 C 226.910156 141.804688 227.015625 141.804688 227.066406 141.804688 L 228.691406 141.804688 C 229.109375 141.859375 229.636719 141.753906 230.054688 141.960938 C 230.425781 142.121094 230.425781 142.488281 230.425781 142.855469 C 230.425781 143.117188 230.425781 143.378906 230.425781 143.644531 L 230.425781 145.269531 C 230.476562 145.898438 230.476562 146.527344 230.476562 147.160156 C 230.476562 147.632812 230.582031 148.3125 230.003906 148.46875 C 229.109375 148.679688 228.167969 148.417969 227.273438 148.46875 C 226.960938 148.46875 226.644531 148.46875 226.332031 148.523438 C 226.121094 148.523438 225.859375 148.574219 225.648438 148.574219 C 225.386719 148.625 225.125 148.574219 224.863281 148.625 C 224.445312 148.734375 224.019531 148.890625 223.601562 148.996094 C 223.234375 149.097656 222.867188 149.257812 222.5 149.414062 L 221.765625 149.730469 C 221.664062 149.832031 221.554688 149.886719 221.398438 149.941406 C 221.136719 150.097656 220.820312 150.203125 220.558594 150.359375 L 219.875 150.933594 C 219.773438 150.988281 219.667969 151.148438 219.5625 151.25 C 219.355469 151.355469 219.144531 151.460938 218.984375 151.617188 L 218.828125 151.722656 C 218.671875 151.878906 218.617188 152.039062 218.460938 152.195312 C 218.300781 152.351562 218.144531 152.5625 217.988281 152.769531 C 217.726562 153.035156 217.464844 153.296875 217.203125 153.613281 L 216.886719 154.136719 C 216.675781 154.503906 216.464844 154.921875 216.308594 155.292969 C 216.203125 155.550781 216.148438 155.816406 216.101562 156.023438 C 215.992188 156.339844 215.785156 156.601562 215.679688 156.917969 C 215.574219 157.339844 215.523438 157.8125 215.46875 158.230469 C 215.417969 158.4375 215.367188 158.648438 215.367188 158.859375 C 215.3125 158.964844 215.3125 159.121094 215.3125 159.226562 C 215.257812 159.4375 215.3125 159.648438 215.3125 159.855469 C 215.3125 159.960938 215.257812 160.011719 215.257812 160.121094 C 215.257812 160.222656 215.210938 160.328125 215.210938 160.484375 C 215.210938 160.695312 215.257812 160.90625 215.257812 161.167969 C 215.257812 161.273438 215.367188 161.375 215.367188 161.484375 C 215.367188 161.800781 215.46875 162.164062 215.523438 162.480469 L 215.679688 163.058594 C 215.730469 163.265625 215.730469 163.476562 215.835938 163.683594 L 215.890625 163.894531 C 216.046875 164.265625 216.101562 164.628906 216.257812 164.945312 C 216.414062 165.210938 216.464844 165.523438 216.621094 165.785156 C 216.835938 166.203125 217.148438 166.625 217.410156 167.046875 C 217.621094 167.253906 217.832031 167.464844 218.039062 167.726562 C 218.144531 167.832031 218.144531 167.988281 218.25 168.144531 C 218.410156 168.355469 218.671875 168.460938 218.828125 168.671875 C 218.984375 168.773438 219.144531 168.933594 219.300781 169.089844 L 219.929688 169.511719 C 220.347656 169.828125 220.71875 170.191406 221.191406 170.453125 C 221.398438 170.609375 221.710938 170.664062 221.976562 170.824219 L 222.710938 171.136719 C 222.972656 171.242188 223.183594 171.347656 223.390625 171.136719 C 223.550781 170.980469 223.601562 170.769531 223.65625 170.5625 C 223.707031 170.089844 223.65625 169.671875 223.65625 169.199219 C 223.65625 167.9375 223.601562 166.675781 223.601562 165.417969 L 223.601562 164.789062 C 223.550781 164.582031 223.390625 164.316406 223.128906 164.316406 C 222.972656 164.265625 222.816406 164.210938 222.65625 164.210938 C 222.238281 164.210938 221.820312 164.15625 221.347656 164.15625 C 221.191406 164.15625 220.980469 164.15625 220.875 164 C 220.769531 163.84375 220.71875 163.582031 220.769531 163.371094 L 220.769531 161.957031 C 220.769531 161.484375 220.769531 160.957031 220.769531 160.433594 L 220.769531 158.019531 C 220.769531 157.652344 221.03125 157.601562 221.347656 157.601562 C 222.761719 157.546875 224.128906 157.601562 225.542969 157.601562 L 228.007812 157.601562 C 228.640625 157.601562 229.582031 157.601562 230.003906 158.175781 C 230.527344 158.859375 230.371094 161.0625 230.214844 162.007812 C 230.003906 163.371094 230.269531 163.476562 230.269531 164.789062 C 230.269531 165.890625 230.316406 166.992188 230.316406 168.09375 Z M 230.316406 168.09375 " fill-opacity="1" fill-rule="nonzero"/><path fill="#fefefe" d="M 256.816406 160.222656 C 256.816406 161.429688 256.816406 162.585938 256.816406 163.792969 L 256.816406 167.308594 C 256.816406 168.515625 256.761719 169.671875 256.761719 170.875 C 256.761719 172.027344 256.816406 173.234375 256.816406 174.390625 C 256.816406 175.597656 256.867188 176.753906 256.867188 177.960938 C 256.867188 178.0625 256.761719 178.167969 256.710938 178.273438 C 256.65625 178.480469 256.554688 178.589844 256.34375 178.640625 C 256.183594 178.640625 256.027344 178.746094 255.871094 178.746094 L 250.359375 178.746094 C 250.257812 178.746094 250.101562 178.589844 249.941406 178.535156 C 249.785156 178.535156 249.730469 178.433594 249.675781 178.273438 C 249.675781 178.222656 249.628906 178.167969 249.628906 178.0625 C 249.574219 177.960938 249.628906 177.90625 249.628906 177.800781 C 249.628906 176.488281 249.574219 175.179688 249.574219 173.917969 C 249.574219 172.605469 249.628906 171.296875 249.628906 169.984375 C 249.628906 168.671875 249.574219 167.359375 249.574219 166.101562 L 249.574219 165.628906 C 249.519531 165.417969 249.417969 165.3125 249.15625 165.3125 C 249.15625 165.261719 249.101562 165.261719 249.050781 165.261719 C 247.476562 165.261719 245.902344 165.210938 244.328125 165.210938 L 244.117188 165.210938 C 243.960938 165.261719 243.804688 165.417969 243.804688 165.574219 C 243.75 165.734375 243.804688 165.835938 243.804688 165.945312 L 243.804688 169.929688 C 243.804688 171.296875 243.75 172.605469 243.75 173.917969 C 243.75 175.28125 243.695312 176.597656 243.695312 177.90625 C 243.695312 178.0625 243.855469 178.167969 243.804688 178.273438 C 243.75 178.535156 243.539062 178.640625 243.332031 178.695312 C 243.171875 178.695312 243.015625 178.746094 242.859375 178.746094 C 241.023438 178.695312 239.1875 178.695312 237.398438 178.695312 L 236.925781 178.695312 C 236.769531 178.640625 236.71875 178.433594 236.667969 178.273438 C 236.667969 178.222656 236.5625 178.117188 236.5625 178.0625 C 236.5625 177.960938 236.613281 177.800781 236.613281 177.695312 L 236.613281 173.761719 C 236.613281 172.449219 236.5625 171.136719 236.5625 169.878906 C 236.5625 168.566406 236.613281 167.253906 236.613281 165.945312 C 236.613281 164.628906 236.507812 163.371094 236.507812 162.058594 C 236.507812 160.746094 236.613281 159.4375 236.613281 158.125 C 236.613281 156.8125 236.5625 155.550781 236.5625 154.242188 C 236.5625 152.929688 236.5625 151.617188 236.5625 150.304688 L 236.5625 146.421875 C 236.5625 145.113281 236.667969 143.800781 236.667969 142.488281 C 236.667969 142.382812 236.613281 142.277344 236.667969 142.171875 C 236.667969 142.015625 236.71875 141.804688 236.878906 141.753906 C 236.980469 141.753906 237.085938 141.699219 237.191406 141.699219 L 237.398438 141.699219 C 238.34375 141.699219 239.289062 141.753906 240.234375 141.753906 C 241.179688 141.753906 242.125 141.753906 243.066406 141.753906 L 243.382812 141.753906 C 243.59375 141.804688 243.695312 141.960938 243.75 142.171875 C 243.75 142.277344 243.75 142.382812 243.75 142.488281 L 243.75 147.160156 C 243.75 148.261719 243.855469 149.414062 243.855469 150.515625 C 243.855469 151.667969 243.695312 152.769531 243.695312 153.929688 C 243.695312 155.082031 243.75 156.183594 243.75 157.339844 L 243.75 157.703125 C 243.75 157.863281 243.960938 158.019531 244.117188 158.074219 C 244.167969 158.074219 244.222656 157.96875 244.277344 157.96875 C 245.902344 157.96875 247.476562 158.019531 249.050781 158.019531 C 249.101562 158.019531 249.15625 158.074219 249.207031 158.019531 C 249.417969 158.019531 249.574219 157.8125 249.574219 157.652344 C 249.628906 157.496094 249.519531 157.390625 249.519531 157.230469 C 249.519531 155.972656 249.574219 154.765625 249.574219 153.558594 L 249.574219 149.886719 C 249.574219 148.625 249.628906 147.421875 249.628906 146.214844 C 249.628906 144.953125 249.519531 143.746094 249.519531 142.542969 C 249.519531 142.382812 249.628906 142.277344 249.675781 142.171875 C 249.730469 142.015625 249.785156 141.960938 249.941406 141.910156 C 249.992188 141.859375 250.101562 141.753906 250.203125 141.753906 L 250.359375 141.753906 C 251.359375 141.753906 252.300781 141.859375 253.246094 141.859375 C 254.191406 141.859375 255.136719 141.753906 256.082031 141.753906 C 256.183594 141.753906 256.292969 141.804688 256.394531 141.859375 C 256.605469 141.859375 256.710938 141.960938 256.761719 142.171875 C 256.761719 142.277344 256.816406 142.332031 256.867188 142.382812 C 256.867188 142.542969 256.816406 142.644531 256.816406 142.75 C 256.816406 143.90625 256.867188 145.058594 256.867188 146.265625 C 256.867188 147.421875 256.761719 148.574219 256.761719 149.730469 C 256.761719 150.886719 256.761719 152.089844 256.761719 153.242188 L 256.761719 156.710938 C 256.761719 157.914062 256.816406 159.066406 256.816406 160.222656 Z M 256.816406 160.222656 " fill-opacity="1" fill-rule="nonzero"/><g clip-path="url(#d91bb1b7fa)"><path fill="#fefefe" d="M 58.984375 199.332031 C 58.984375 194.964844 58.816406 190.429688 58.816406 186.0625 L 58.816406 172.792969 C 58.816406 168.257812 58.984375 163.886719 58.984375 159.351562 L 58.984375 146.082031 C 58.984375 145.410156 58.816406 144.570312 58.816406 143.898438 L 58.816406 143.394531 C 58.984375 142.722656 59.324219 142.050781 59.828125 141.546875 C 60.5 141.210938 61.167969 141.042969 61.675781 140.875 C 62.179688 140.710938 62.847656 140.539062 63.519531 140.539062 C 67.550781 140.539062 71.582031 140.875 75.613281 140.875 C 76.457031 140.875 77.292969 140.875 78.304688 141.042969 C 79.648438 141.378906 80.488281 142.050781 80.992188 143.394531 L 80.992188 145.074219 C 80.992188 149.105469 81.160156 153.136719 81.160156 157 C 81.160156 161.03125 80.65625 165.0625 80.65625 169.09375 L 80.65625 181.023438 C 80.992188 185.054688 80.992188 188.917969 80.992188 192.949219 C 80.992188 196.980469 81.160156 200.84375 81.160156 204.875 C 81.160156 208.90625 81.160156 212.9375 81.160156 216.800781 L 81.160156 228.894531 C 81.160156 232.761719 80.992188 236.792969 80.992188 240.824219 C 80.992188 244.855469 81.160156 248.71875 81.160156 252.75 C 81.160156 253.585938 80.992188 254.429688 80.65625 255.269531 C 80.488281 255.9375 80.320312 256.609375 79.984375 257.113281 C 79.480469 257.617188 78.808594 257.617188 78.304688 257.785156 C 77.464844 257.785156 76.960938 258.125 76.289062 258.125 C 72.425781 258.125 68.226562 257.957031 64.363281 257.957031 C 63.519531 257.957031 62.515625 257.957031 61.675781 257.785156 C 60.160156 257.453125 59.660156 256.609375 59.324219 255.269531 C 59.15625 254.761719 59.15625 254.257812 59.15625 253.585938 C 59.15625 249.050781 58.816406 244.515625 58.816406 239.980469 L 58.816406 226.542969 C 58.816406 222.007812 58.984375 217.472656 58.984375 212.9375 Z M 58.984375 199.332031 " fill-opacity="1" fill-rule="nonzero"/></g><g clip-path="url(#f07c65e428)"><path fill="#fefefe" d="M 113.242188 257.957031 C 111.054688 257.957031 108.875 258.125 106.519531 258.125 C 102.992188 258.125 99.632812 258.289062 96.105469 258.289062 C 95.773438 258.289062 95.269531 257.957031 94.929688 257.785156 C 94.597656 257.785156 94.09375 257.785156 93.921875 257.285156 C 93.921875 257.113281 93.921875 256.949219 93.753906 256.78125 L 93.921875 256.609375 C 93.921875 256.445312 94.09375 256.277344 94.09375 256.277344 C 94.09375 256.105469 93.753906 256.105469 93.753906 256.105469 L 93.921875 255.9375 C 93.921875 255.773438 93.921875 255.605469 93.921875 255.605469 L 93.753906 254.929688 C 93.753906 250.730469 93.921875 246.699219 93.921875 242.503906 C 93.921875 238.472656 94.09375 234.269531 94.09375 230.238281 C 94.09375 226.039062 94.09375 222.007812 94.09375 217.808594 L 94.09375 205.546875 C 94.09375 201.347656 93.753906 197.316406 93.753906 193.117188 L 93.753906 180.855469 C 93.753906 176.652344 93.921875 172.621094 93.921875 168.421875 C 93.921875 164.390625 93.921875 160.195312 93.921875 156.164062 L 93.921875 143.730469 C 93.921875 143.566406 94.09375 143.394531 93.921875 143.226562 C 93.921875 143.0625 93.753906 142.890625 93.753906 142.722656 C 93.753906 142.554688 94.09375 142.390625 94.09375 142.390625 C 94.09375 142.050781 93.921875 141.714844 93.921875 141.378906 C 94.09375 141.042969 94.425781 140.710938 94.765625 140.539062 C 95.097656 140.539062 95.269531 140.371094 95.433594 140.371094 L 96.445312 140.371094 C 97.117188 140.371094 97.953125 140.710938 98.628906 140.710938 C 101.652344 140.710938 105.179688 140.539062 108.199219 140.710938 C 108.703125 140.875 108.875 141.210938 109.210938 141.210938 C 112.734375 141.546875 115.929688 142.050781 119.457031 143.0625 C 122.3125 143.730469 125 144.570312 127.855469 145.746094 C 128.191406 145.917969 128.695312 146.082031 128.863281 146.421875 L 129.367188 146.921875 C 129.535156 147.09375 129.871094 147.09375 130.207031 147.09375 C 131.214844 147.425781 132.558594 148.433594 133.566406 149.105469 L 136.589844 151.289062 C 137.09375 151.628906 137.429688 151.960938 137.933594 152.296875 L 138.4375 152.804688 C 139.277344 153.472656 140.117188 154.3125 140.957031 155.320312 C 141.292969 155.660156 141.292969 155.824219 141.628906 155.992188 C 141.964844 156.328125 142.300781 156.328125 142.636719 156.328125 C 142.972656 156.328125 143.476562 156.164062 143.8125 155.15625 C 143.8125 154.988281 143.644531 154.648438 143.644531 154.3125 C 143.8125 151.960938 143.8125 149.609375 143.8125 147.257812 C 143.8125 145.917969 143.980469 144.742188 143.980469 143.394531 C 143.980469 143.226562 144.148438 143.0625 144.148438 142.890625 L 144.148438 142.722656 C 144.148438 142.722656 143.980469 142.722656 143.980469 142.722656 L 143.980469 142.21875 C 143.980469 142.050781 143.8125 141.714844 143.980469 141.378906 C 143.980469 141.042969 144.316406 140.539062 144.652344 140.371094 C 144.988281 140.371094 145.15625 140.539062 145.492188 140.539062 C 148.347656 140.539062 151.371094 140.371094 154.394531 140.371094 L 164.136719 140.371094 C 164.472656 140.371094 164.808594 140.710938 165.144531 140.875 C 165.3125 141.042969 165.484375 141.042969 165.484375 141.210938 C 165.648438 141.546875 165.648438 141.886719 165.648438 142.21875 C 165.648438 142.554688 165.984375 142.890625 165.984375 143.226562 C 165.984375 148.773438 165.816406 148.773438 165.816406 154.3125 L 165.816406 165.402344 C 165.816406 170.941406 165.648438 170.941406 165.648438 176.484375 C 165.648438 182.199219 165.984375 182.199219 165.984375 187.742188 C 165.984375 197.820312 165.816406 207.898438 165.816406 217.976562 C 165.816406 222.175781 165.648438 226.375 165.648438 230.574219 C 165.648438 234.773438 165.984375 239.144531 165.984375 243.339844 C 165.984375 247.539062 165.816406 251.742188 165.816406 255.9375 C 165.816406 256.277344 165.984375 256.78125 165.984375 256.949219 C 165.816406 257.617188 165.3125 258.125 164.640625 258.289062 L 163.464844 258.125 C 161.113281 258.125 158.761719 257.957031 156.410156 257.957031 C 153.050781 257.957031 149.523438 258.125 145.996094 258.125 C 145.660156 258.125 145.324219 257.957031 144.988281 257.957031 C 144.484375 257.957031 143.980469 257.785156 143.8125 257.285156 C 143.8125 257.113281 144.148438 256.78125 144.148438 256.609375 C 143.980469 255.269531 143.644531 254.09375 143.644531 252.75 C 143.644531 252.414062 143.980469 252.074219 143.980469 251.742188 L 143.980469 249.722656 C 143.980469 248.886719 143.644531 248.042969 143.644531 247.371094 C 143.644531 247.039062 143.644531 246.867188 143.644531 246.699219 L 143.8125 246.535156 C 143.8125 246.535156 143.644531 246.363281 143.644531 246.363281 L 143.476562 246.363281 C 143.644531 246.03125 143.8125 245.523438 143.8125 245.1875 C 143.476562 235.78125 143.308594 226.375 142.300781 216.96875 C 142.300781 216.632812 142.46875 216.132812 142.300781 215.792969 C 141.964844 212.601562 141.125 209.578125 140.621094 206.386719 L 140.621094 206.21875 C 140.285156 204.035156 139.949219 201.683594 139.445312 199.5 C 139.109375 198.324219 138.605469 197.316406 138.269531 196.308594 C 138.269531 195.804688 137.933594 195.972656 137.765625 195.636719 C 137.597656 194.796875 137.765625 194.125 137.597656 193.621094 C 136.589844 190.765625 135.246094 188.074219 133.902344 185.390625 C 133.902344 185.054688 133.902344 185.054688 133.734375 184.886719 C 133.398438 184.214844 133.0625 183.542969 132.726562 182.867188 L 131.214844 180.351562 C 131.214844 180.183594 131.046875 180.011719 130.878906 179.847656 C 130.878906 179.847656 130.710938 179.847656 130.539062 179.679688 L 130.207031 179.34375 C 129.199219 178.167969 128.359375 176.484375 127.183594 175.3125 C 127.015625 174.976562 126.507812 174.976562 126.175781 174.640625 L 125.671875 174.136719 C 125 173.464844 124.328125 172.621094 123.320312 171.785156 C 122.476562 170.941406 121.472656 170.269531 120.296875 169.433594 C 119.792969 169.265625 119.289062 168.929688 118.785156 168.589844 C 118.617188 168.589844 118.617188 168.421875 118.445312 168.421875 C 118.28125 168.257812 117.777344 168.257812 117.441406 168.257812 L 117.441406 168.421875 C 116.9375 168.421875 116.261719 168.421875 116.097656 168.929688 C 115.929688 169.09375 116.261719 169.597656 116.097656 170.105469 C 116.097656 171.28125 115.929688 172.453125 115.929688 173.796875 L 115.929688 174.472656 C 115.929688 178.332031 116.097656 182.199219 116.097656 186.0625 C 116.097656 189.753906 115.929688 193.621094 115.929688 197.484375 C 115.929688 201.347656 116.097656 205.210938 116.097656 209.074219 C 116.097656 212.769531 116.097656 216.632812 116.097656 220.496094 L 116.097656 232.085938 C 116.097656 235.78125 115.761719 239.648438 115.761719 243.507812 L 115.761719 256.445312 C 115.761719 256.78125 116.097656 257.113281 115.929688 257.285156 C 115.761719 257.785156 115.425781 258.125 114.921875 258.125 C 114.414062 258.289062 113.746094 258.289062 113.242188 258.289062 Z M 113.242188 257.957031 " fill-opacity="1" fill-rule="nonzero"/></g><g clip-path="url(#603903cde8)"><path fill="#fefefe" d="M 307.984375 211.832031 C 307.984375 225.78125 307.8125 239.902344 307.644531 254.027344 C 307.644531 255.726562 307.644531 257.59375 306.285156 258.789062 C 305.261719 259.808594 303.730469 259.980469 302.371094 259.980469 C 298.113281 260.148438 294.035156 260.148438 289.949219 259.808594 C 288.417969 259.808594 286.714844 259.636719 285.355469 258.789062 C 283.824219 257.765625 283.824219 256.234375 283.992188 254.535156 C 284.164062 252.492188 283.992188 250.28125 283.992188 248.238281 L 283.992188 234.117188 C 283.992188 224.589844 283.992188 215.234375 283.992188 205.703125 L 283.992188 170.148438 C 283.992188 168.785156 283.824219 167.253906 282.972656 166.234375 C 281.953125 165.382812 280.421875 165.210938 279.058594 165.382812 L 273.105469 165.382812 C 270.722656 165.382812 268.003906 165.210938 266.472656 163.34375 C 265.449219 161.980469 265.449219 160.105469 265.449219 158.40625 C 265.449219 155.171875 265.449219 151.769531 265.621094 148.539062 C 265.621094 146.15625 265.789062 143.433594 267.832031 142.246094 C 268.851562 141.5625 270.210938 141.390625 271.574219 141.390625 C 288.078125 140.882812 304.582031 140.882812 321.082031 141.5625 C 322.277344 141.5625 323.636719 141.5625 324.65625 142.414062 C 325.679688 143.433594 325.847656 144.796875 326.015625 146.15625 C 326.527344 151.09375 326.527344 156.027344 326.1875 160.960938 C 326.015625 162.148438 326.015625 163.171875 325.167969 164.019531 C 324.316406 164.875 323.125 165.042969 321.9375 165.210938 C 319.042969 165.382812 316.148438 165.382812 313.429688 165.210938 C 312.234375 165.210938 311.214844 165.210938 310.195312 165.550781 C 307.984375 166.574219 307.8125 169.464844 307.8125 171.847656 C 307.8125 185.117188 307.984375 198.386719 307.984375 211.832031 Z M 307.984375 211.832031 " fill-opacity="1" fill-rule="nonzero"/></g></svg>